# xmcd
#
# Track frame offsets: 
#        150
#        13384
#        20512
#        34384
#        42195
#        45147
#        67126
#        85225
#        97146
#        103883
#        121980
#        136110
#        153507
#        170859
#        172726
#        192178
#        207463
#        228241
#
# Disc length: 3395 seconds
#
# Revision: 0
# Processed by: cddbd v1.5.2PL0 Copyright (c) Steve Scherf et al.
# Submitted via: ExactAudioCopy v0.99pb4
#
DISCID=f80d4112
DTITLE=Madison - Là devant toi
DYEAR=2002
DGENRE=Gospel
TTITLE0=Song in my Soul
TTITLE1=Glory, Glory (interlude)
TTITLE2=Joshua fit the Battle of Jericho
TTITLE3=Shelter
TTITLE4=Confidence (interlude)
TTITLE5=Géant
TTITLE6=Plus de larmes
TTITLE7=Jésus
TTITLE8=Oh when the Saints (interlude)
TTITLE9=Amazing Grace
TTITLE10=Shut de Do
TTITLE11=Pardonné
TTITLE12=Guéris mon coeur
TTITLE13=Confidence (interlude)
TTITLE14=Vieux Pèlerin
TTITLE15=Pensée (interlude)
TTITLE16=Dépose tes soucis
TTITLE17=Là devant Toi
EXTD=Décembre 2002\nhttp://www.madisongospel.com/
EXTT0=
EXTT1=
EXTT2=
EXTT3=
EXTT4=
EXTT5=
EXTT6=
EXTT7=
EXTT8=
EXTT9=
EXTT10=
EXTT11=
EXTT12=
EXTT13=
EXTT14=
EXTT15=
EXTT16=
EXTT17=
PLAYORDER=
